<svg width="37" height="37" viewBox="0 0 37 37" fill="none" xmlns="http://www.w3.org/2000/svg">
<g clip-path="url(#clip0_75_168)">
<path d="M12.8893 1.21694C9.19241 2.49942 6.00423 4.93361 3.79304 8.16196C1.58185 11.3903 0.464201 15.2427 0.604255 19.1532C0.744308 23.0637 2.13468 26.8262 4.57116 29.8881C7.00763 32.95 10.3618 35.1499 14.1409 36.1646C17.2048 36.9552 20.4148 36.9899 23.495 36.2658C26.2854 35.639 28.8651 34.2983 30.9817 32.375C33.1846 30.3121 34.7836 27.6878 35.6067 24.7842C36.5014 21.6267 36.6606 18.3061 36.0721 15.0775H18.8671V22.2144H28.8311C28.6319 23.3527 28.2052 24.4392 27.5764 25.4087C26.9476 26.3782 26.1297 27.2109 25.1716 27.8569C23.9548 28.6618 22.5833 29.2033 21.1449 29.4468C19.7023 29.715 18.2227 29.715 16.7801 29.4468C15.318 29.1445 13.9348 28.541 12.7187 27.6748C10.7651 26.2919 9.2982 24.3273 8.52733 22.0612C7.74344 19.7528 7.74344 17.2501 8.52733 14.9416C9.07605 13.3235 9.98315 11.8502 11.1809 10.6317C12.5516 9.21168 14.287 8.19663 16.1966 7.69794C18.1062 7.19925 20.1163 7.23618 22.0063 7.80467C23.4828 8.2579 24.8329 9.04977 25.9491 10.1172C27.0726 8.99947 28.1942 7.87887 29.3138 6.75538C29.8919 6.15124 30.5221 5.576 31.0916 4.95741C29.3877 3.37183 27.3877 2.13806 25.2062 1.32678C21.2337 -0.115667 16.887 -0.154432 12.8893 1.21694Z" fill="white"/>
<path d="M12.8893 1.21694C16.8866 -0.155363 21.2333 -0.117619 25.2062 1.32389C27.3881 2.14068 29.3872 3.3804 31.0886 4.97186C30.5105 5.59046 29.9006 6.16858 29.3109 6.76983C28.1894 7.88947 27.0687 9.00525 25.9491 10.1172C24.8329 9.04978 23.4827 8.2579 22.0063 7.80468C20.1169 7.23418 18.1069 7.19512 16.1968 7.69177C14.2867 8.18843 12.5502 9.2016 11.178 10.6201C9.98025 11.8386 9.07315 13.3119 8.52443 14.9301L2.53217 10.2906C4.67703 6.03724 8.39074 2.78373 12.8893 1.21694Z" fill="#E33629"/>
<path d="M0.942353 14.8867C1.26443 13.2905 1.79914 11.7447 2.5322 10.2906L8.52446 14.9417C7.74057 17.2501 7.74057 19.7528 8.52446 22.0613C6.528 23.6029 4.53058 25.1523 2.5322 26.7094C0.697085 23.0566 0.137408 18.8946 0.942353 14.8867Z" fill="#F8BD00"/>
<path d="M18.8671 15.0746H36.0721C36.6607 18.3032 36.5014 21.6238 35.6067 24.7813C34.7836 27.6849 33.1846 30.3092 30.9817 32.3721C29.0479 30.8632 27.1054 29.3658 25.1716 27.8569C26.1303 27.2102 26.9486 26.3766 27.5775 25.4061C28.2063 24.4355 28.6327 23.348 28.8311 22.2086H18.8671C18.8642 19.8326 18.8671 17.4536 18.8671 15.0746Z" fill="#587DBD"/>
<path d="M2.5293 26.7093C4.52768 25.1677 6.5251 23.6183 8.52156 22.0612C9.29396 24.328 10.763 26.2928 12.7188 27.6748C13.9386 28.537 15.3247 29.1355 16.7888 29.4323C18.2313 29.7006 19.711 29.7006 21.1536 29.4323C22.592 29.1888 23.9635 28.6473 25.1802 27.8425C27.1141 29.3514 29.0566 30.8487 30.9904 32.3576C28.8741 34.282 26.2943 35.6237 23.5037 36.2513C20.4234 36.9754 17.2135 36.9407 14.1496 36.1501C11.7264 35.5031 9.46297 34.3625 7.50117 32.7999C5.42472 31.1513 3.72878 29.0738 2.5293 26.7093Z" fill="#319F43"/>
</g>
<defs>
<clipPath id="clip0_75_168">
<rect width="37" height="37" fill="white"/>
</clipPath>
</defs>
</svg>
